Coordinates
version=1
nRows=8
nColumns=36
inDegrees=yes

Units are S.I. units (second, meters, Newtons, ...)
If the header above contains a line with 'inDegrees', this indicates whether rotational values are in degrees (yes) or radians (no).

endheader
time	pelvis_tilt	pelvis_list	pelvis_rotation	pelvis_tx	pelvis_ty	pelvis_tz	hip_flexion_r	hip_adduction_r	hip_rotation_r	knee_angle_r	knee_angle_r_beta	ankle_angle_r	subtalar_angle_r	mtp_angle_r	hip_flexion_l	hip_adduction_l	hip_rotation_l	knee_angle_l	knee_angle_l_beta	ankle_angle_l	subtalar_angle_l	mtp_angle_l	lumbar_extension	lumbar_bending	lumbar_rotation	arm_flex_r	arm_add_r	arm_rot_r	elbow_flex_r	pro_sup_r	arm_flex_l	arm_add_l	arm_rot_l	elbow_flex_l	pro_sup_l
      0.99000000	      1.34070584	      1.28568837	      2.06171175	      1.09619073	      0.94874537	     -0.24598459	     22.55532464	     -1.27591421	      2.86255127	      7.63018284	      0.13317181	      0.36915350	    -13.13527659	     -7.23721778	    -14.72941535	      6.12888056	      3.12358747	      2.71475902	      0.04738148	     12.71981577	     -4.19676537	     -7.23721778	     -8.20075313	     -2.77598997	     -8.54842041	    -12.81558355	     -3.23949966	    -12.34788721	     23.57927099	    112.52324130	     20.37776319	     -7.91396316	      8.38470455	     45.54184649	    109.12883141
      1.00000000	      1.29537873	      1.39582425	      2.31376328	      1.10877706	      0.94635241	     -0.24565884	     22.43564533	     -1.35881564	      2.22748271	      5.37566373	      0.09382303	      1.74036526	    -10.17589917	     -7.25227222	    -15.50964122	      6.07979801	      2.87885370	      2.81819455	      0.04918677	     13.38366182	     -3.14849459	     -7.25227222	     -8.20769561	     -2.92699738	     -8.84405966	    -13.14838234	     -3.11420932	    -13.07507378	     23.76867434	    112.58294096	     20.75665275	     -7.96004772	      8.45724269	     46.59788825	    109.02844212
      1.01000000	      1.28159249	      1.45408649	      2.49568968	      1.12146712	      0.94401197	     -0.24517738	     22.22424442	     -1.28619627	      2.01823643	      3.36995276	      0.05881677	      2.13453064	     -8.73814556	     -7.25872964	    -16.33562803	      5.99042516	      2.81965225	      2.90271852	      0.05066200	     13.74791082	     -2.86393066	     -7.25872964	     -8.22001549	     -3.02755020	     -9.07398656	    -13.37879096	     -3.08019446	    -13.29467007	     23.74408572	    112.59995795	     21.11629725	     -8.01911587	      8.63213306	     47.43133482	    109.05586218
      1.02000000	      1.19718272	      1.49172402	      2.62854987	      1.13424715	      0.94159665	     -0.24458786	     22.19582725	     -1.14822533	      1.78765884	      1.98566652	      0.03465642	      2.48259505	     -7.61441807	     -7.26210884	    -17.01836755	      5.88598599	      2.76120439	      3.11990581	      0.05445263	     14.02587133	     -2.67307999	     -7.26210884	     -8.13279961	     -3.09453178	     -9.26293336	    -13.57282283	     -3.07566290	    -13.44429285	     23.71413679	    112.59328995	     21.39556091	     -8.05196017	      8.70947167	     48.12423144	    109.09218723
      1.03000000	      1.25027449	      1.46144679	      2.75192607	      1.14734239	      0.93943541	     -0.24400687	     22.22023987	     -0.92910440	      0.61344520	      1.47472187	      0.02573875	      3.76273929	     -5.40255842	     -7.27288976	    -17.80961588	      5.67007962	      2.40175874	      3.41239760	      0.05955757	     14.42351644	     -1.79618547	     -7.27288976	     -8.19731369	     -3.06508075	     -9.54173126	    -13.69330627	     -3.06494945	    -13.85906650	     23.79791782	    112.58192119	     21.39949001	     -8.07295210	      8.44739514	     49.18300545	    109.06610414
      1.04000000	      1.13591530	      1.51411678	      2.71406648	      1.16044665	      0.93707018	     -0.24314690	     22.42294294	     -0.68498137	      0.53449625	      1.35263038	      0.02360785	      3.80841941	     -5.39990147	     -7.27308245	    -18.44876892	      5.61299889	      2.39968199	      3.64487892	      0.06361514	     14.39797518	     -1.79973934	     -7.27308245	     -7.96816380	     -3.17835977	     -9.60748973	    -13.78087004	     -3.11913684	    -13.87824533	     23.76397353	    112.57819064	     21.59472109	     -8.04645601	      8.44097324	     49.32287149	    109.07637842
      1.05000000	      1.28725164	      1.25065516	      2.76500777	      1.17403208	      0.93520475	     -0.24231838	     22.12919108	     -0.10308369	     -0.04475196	      1.25069484	      0.02182874	      4.09049021	     -5.36461095	     -7.27487558	    -19.18689484	      5.15349327	      2.12480331	      4.28002801	      0.07470058	     14.34670333	     -1.84503215	     -7.27487558	     -8.10923688	     -2.84994923	     -9.41495955	    -13.99147329	     -3.15991969	    -13.97910062	     23.64063784	    112.55719006	     21.63329358	     -7.83138552	      8.45608899	     50.12900175	    109.13961523
      1.06000000	      1.46553089	      1.00617481	      2.68607798	      1.18792638	      0.93352208	     -0.24126726	     21.83988766	      0.50078022	     -0.55392076	      1.58077989	      0.02758981	      4.21280157	     -5.02271783	     -7.28509626	    -19.95543244	      4.71437517	      1.44582487	      4.90865740	      0.08567223	     14.53894636	     -0.97910714	     -7.28509626	     -8.21341362	     -2.53157536	     -9.66787201	    -13.91267080	     -3.22307443	    -14.40547973	     23.80513677	    112.51592606	     21.09265714	     -7.83424046	      7.62845289	     51.34372229	    109.15101349
